<svg xmlns="http://www.w3.org/2000/svg" viewBox="0 0 940 440" font-family="'Inter','Segoe UI',system-ui,sans-serif">
  <defs>
    <marker id="t4a" markerWidth="9" markerHeight="9" refX="7" refY="3" orient="auto"><path d="M0 0L7 3L0 6Z" fill="#A9761A"/></marker>
  </defs>

  <!-- etykiety stanow -->
  <g font-size="14" font-weight="700" text-anchor="end">
    <text x="120" y="115" fill="#1f6b46">Spokój</text>
    <text x="120" y="235" fill="#7a560f">Trend</text>
    <text x="120" y="355" fill="#93331f">Panika</text>
  </g>

  <!-- faint fan w przerwie t+1 -> t+2 (z kazdego w kazdy) -->
  <g stroke="#dfe3e8" stroke-width="1.3" fill="none">
    <line x1="300" y1="110" x2="430" y2="110"/><line x1="300" y1="110" x2="430" y2="230"/><line x1="300" y1="110" x2="430" y2="350"/>
    <line x1="300" y1="230" x2="430" y2="110"/><line x1="300" y1="230" x2="430" y2="230"/><line x1="300" y1="230" x2="430" y2="350"/>
    <line x1="300" y1="350" x2="430" y2="110"/><line x1="300" y1="350" x2="430" y2="230"/><line x1="300" y1="350" x2="430" y2="350"/>
  </g>
  <text x="365" y="40" text-anchor="middle" font-size="12.5" fill="#9aa1ab">z każdego stanu można</text>
  <text x="365" y="56" text-anchor="middle" font-size="12.5" fill="#9aa1ab">przejść w każdy</text>
  <line x1="365" y1="64" x2="365" y2="96" stroke="#cfd4da" stroke-width="1.2"/>

  <!-- wszystkie wezly (faint) -->
  <g fill="#eef0f3" stroke="#cfd4da" stroke-width="1.3">
    <circle cx="170" cy="110" r="13"/><circle cx="300" cy="110" r="13"/><circle cx="430" cy="110" r="13"/><circle cx="560" cy="110" r="13"/><circle cx="690" cy="110" r="13"/><circle cx="820" cy="110" r="13"/>
    <circle cx="170" cy="230" r="13"/><circle cx="300" cy="230" r="13"/><circle cx="430" cy="230" r="13"/><circle cx="560" cy="230" r="13"/><circle cx="690" cy="230" r="13"/><circle cx="820" cy="230" r="13"/>
    <circle cx="170" cy="350" r="13"/><circle cx="300" cy="350" r="13"/><circle cx="430" cy="350" r="13"/><circle cx="560" cy="350" r="13"/><circle cx="690" cy="350" r="13"/><circle cx="820" cy="350" r="13"/>
  </g>

  <!-- najbardziej prawdopodobna sciezka (Viterbi) -->
  <polyline points="170,110 300,110 430,230 560,230 690,350 820,350" fill="none" stroke="#A9761A" stroke-width="3.4" marker-end="url(#t4a)"/>
  <g fill="#A9761A">
    <circle cx="170" cy="110" r="11"/><circle cx="300" cy="110" r="11"/><circle cx="430" cy="230" r="11"/><circle cx="560" cy="230" r="11"/><circle cx="690" cy="350" r="11"/><circle cx="820" cy="350" r="11"/>
  </g>
  <text x="240" y="96" text-anchor="middle" font-size="12.5" font-weight="700" fill="#A9761A">najbardziej prawdopodobna ścieżka</text>

  <!-- obserwacje (swiece) na dole -->
  <g stroke-width="2">
    <line x1="170" y1="392" x2="170" y2="416" stroke="#2f8f5f"/><rect x="164" y="398" width="12" height="12" fill="#2f8f5f"/>
    <line x1="300" y1="392" x2="300" y2="416" stroke="#2f8f5f"/><rect x="294" y="400" width="12" height="10" fill="#2f8f5f"/>
    <line x1="430" y1="388" x2="430" y2="416" stroke="#2f8f5f"/><rect x="424" y="394" width="12" height="18" fill="#2f8f5f"/>
    <line x1="560" y1="390" x2="560" y2="416" stroke="#2f8f5f"/><rect x="554" y="396" width="12" height="16" fill="#2f8f5f"/>
    <line x1="690" y1="386" x2="690" y2="420" stroke="#c2503a"/><rect x="684" y="392" width="12" height="26" fill="#c2503a"/>
    <line x1="820" y1="390" x2="820" y2="418" stroke="#c2503a"/><rect x="814" y="396" width="12" height="18" fill="#c2503a"/>
  </g>
  <text x="56" y="410" font-size="12.5" fill="#9aa1ab">widać:</text>
</svg>
