<svg xmlns="http://www.w3.org/2000/svg" viewBox="0 0 780 360" font-family="'Inter','Segoe UI',system-ui,sans-serif">
  <defs>
    <marker id="t6a" markerWidth="9" markerHeight="9" refX="7" refY="3" orient="auto"><path d="M0 0L7 3L0 6Z" fill="#9aa1ab"/></marker>
  </defs>

  <!-- wektor wiary alfa_t -->
  <text x="40" y="92" font-size="12" fill="#6b7280">wektor wiary αₜ</text>
  <g font-size="13.5">
    <rect x="40" y="100" width="128" height="40" rx="6" fill="#f6f7f9" stroke="#e3e6ea"/><rect x="40" y="100" width="6" height="40" rx="3" fill="#2f8f5f"/><text x="58" y="125" fill="#1f6b46">Spokój</text><text x="156" y="125" text-anchor="end" font-family="monospace" fill="#15171A">0.70</text>
    <rect x="40" y="146" width="128" height="40" rx="6" fill="#f6f7f9" stroke="#e3e6ea"/><rect x="40" y="146" width="6" height="40" rx="3" fill="#A9761A"/><text x="58" y="171" fill="#7a560f">Trend</text><text x="156" y="171" text-anchor="end" font-family="monospace" fill="#15171A">0.20</text>
    <rect x="40" y="192" width="128" height="40" rx="6" fill="#f6f7f9" stroke="#e3e6ea"/><rect x="40" y="192" width="6" height="40" rx="3" fill="#c2503a"/><text x="58" y="217" fill="#93331f">Panika</text><text x="156" y="217" text-anchor="end" font-family="monospace" fill="#15171A">0.10</text>
  </g>

  <text x="190" y="174" text-anchor="middle" font-size="24" fill="#6b7280">×</text>

  <!-- macierz przejsc A -->
  <g font-size="12" font-family="monospace" fill="#6b7280" text-anchor="middle">
    <text x="241" y="96">S</text><text x="287" y="96">T</text><text x="333" y="96">P</text>
  </g>
  <g font-size="12" font-family="monospace" fill="#6b7280" text-anchor="end">
    <text x="214" y="129">S</text><text x="214" y="175">T</text><text x="214" y="221">P</text>
  </g>
  <g font-size="12.5" font-family="monospace" text-anchor="middle" fill="#15171A">
    <rect x="218" y="104" width="138" height="138" rx="6" fill="#fbfaf7" stroke="#d8cfae"/>
    <text x="241" y="129">.94</text><text x="287" y="129">.05</text><text x="333" y="129">.01</text>
    <text x="241" y="175">.07</text><text x="287" y="175">.83</text><text x="333" y="175">.10</text>
    <text x="241" y="221">.05</text><text x="287" y="221">.15</text><text x="333" y="221">.80</text>
  </g>
  <text x="287" y="260" text-anchor="middle" font-size="12" fill="#6b7280">macierz przejść A</text>

  <text x="388" y="174" text-anchor="middle" font-size="22" fill="#6b7280">⊙</text>

  <!-- nowa swieca + emisje b(o_t) -->
  <g stroke-width="2"><line x1="448" y1="64" x2="448" y2="86" stroke="#2f8f5f"/><rect x="442" y="68" width="12" height="14" fill="#2f8f5f"/></g>
  <text x="464" y="78" font-size="11.5" fill="#6b7280">nowa świeca oₜ</text>
  <text x="420" y="92" font-size="12" fill="#6b7280">szansa świecy b(oₜ)</text>
  <g font-size="13.5">
    <rect x="420" y="100" width="128" height="40" rx="6" fill="#f6f7f9" stroke="#e3e6ea"/><rect x="420" y="100" width="6" height="40" rx="3" fill="#2f8f5f"/><text x="438" y="125" fill="#1f6b46">Spokój</text><text x="536" y="125" text-anchor="end" font-family="monospace" fill="#15171A">0.30</text>
    <rect x="420" y="146" width="128" height="40" rx="6" fill="#f6f7f9" stroke="#e3e6ea"/><rect x="420" y="146" width="6" height="40" rx="3" fill="#A9761A"/><text x="438" y="171" fill="#7a560f">Trend</text><text x="536" y="171" text-anchor="end" font-family="monospace" fill="#15171A">0.50</text>
    <rect x="420" y="192" width="128" height="40" rx="6" fill="#f6f7f9" stroke="#e3e6ea"/><rect x="420" y="192" width="6" height="40" rx="3" fill="#c2503a"/><text x="438" y="217" fill="#93331f">Panika</text><text x="536" y="217" text-anchor="end" font-family="monospace" fill="#15171A">0.20</text>
  </g>

  <text x="572" y="174" text-anchor="middle" font-size="24" fill="#6b7280">=</text>

  <!-- nowa wiara alfa_{t+1} -->
  <text x="596" y="92" font-size="12" fill="#A9761A">nowa wiara αₜ₊₁</text>
  <g font-size="13.5">
    <rect x="596" y="100" width="128" height="40" rx="6" fill="#fbf3df" stroke="#A9761A" stroke-width="1.6"/><rect x="596" y="100" width="6" height="40" rx="3" fill="#2f8f5f"/><text x="614" y="125" fill="#1f6b46">Spokój</text><text x="712" y="125" text-anchor="end" font-family="monospace" font-weight="700" fill="#15171A">0.61</text>
    <rect x="596" y="146" width="128" height="40" rx="6" fill="#fbf3df" stroke="#A9761A" stroke-width="1.6"/><rect x="596" y="146" width="6" height="40" rx="3" fill="#A9761A"/><text x="614" y="171" fill="#7a560f">Trend</text><text x="712" y="171" text-anchor="end" font-family="monospace" font-weight="700" fill="#15171A">0.33</text>
    <rect x="596" y="192" width="128" height="40" rx="6" fill="#fbf3df" stroke="#A9761A" stroke-width="1.6"/><rect x="596" y="192" width="6" height="40" rx="3" fill="#c2503a"/><text x="614" y="217" fill="#93331f">Panika</text><text x="712" y="217" text-anchor="end" font-family="monospace" font-weight="700" fill="#15171A">0.06</text>
  </g>

  <!-- petla: powtarzaj -->
  <path d="M660 244 C 660 300, 110 300, 104 246" fill="none" stroke="#9aa1ab" stroke-width="1.5" stroke-dasharray="5 4" marker-end="url(#t6a)"/>
  <text x="384" y="296" text-anchor="middle" font-size="12.5" fill="#9aa1ab">powtarzasz dla każdej kolejnej świecy</text>
</svg>
